<mxfile host="app.diagrams.net" modified="2023-11-01T02:22:48.452Z" agent="Mozilla/5.0 (Macintosh; Intel Mac OS X 10_15_7) AppleWebKit/605.1.15 (KHTML, like Gecko) Version/17.0 Safari/605.1.15" version="22.0.8" etag="do7XYfSc7TKiC05MZ-SD" type="github">
  <diagram name="Page-1" id="3LZG39WmRWexNcAHWtDX">
    <mxGraphModel>
      <root>
        <mxCell id="0" />
        <mxCell id="1" parent="0" />
      </root>
    </mxGraphModel>
  </diagram>
</mxfile>
